<svg version="1.1" id="Layer_1" xmlns="http://www.w3.org/2000/svg" xmlns:xlink="http://www.w3.org/1999/xlink" x="0px" y="0px"
	 width="100%" viewBox="0 0 1582 530" enable-background="new 0 0 1582 530" xml:space="preserve">
<path fill="#000000" opacity="1.000000" stroke="none" 
	d="
M1140.000000,531.000000 
	C760.044861,531.000000 380.589661,531.000000 1.067249,531.000000 
	C1.067249,354.399048 1.067249,177.798080 1.067249,1.098555 
	C528.333313,1.098555 1055.666626,1.098555 1582.973389,1.098555 
	C1582.973389,177.743958 1582.973389,354.371979 1582.973389,531.000000 
	C1435.464478,531.000000 1287.982178,531.000000 1140.000000,531.000000 
M628.342651,350.135071 
	C646.526978,357.104584 665.140015,358.554016 684.294189,355.019379 
	C736.692932,345.349762 773.969543,291.973969 764.663696,239.712006 
	C754.518372,182.735535 703.684082,146.707581 646.552124,156.002258 
	C593.453064,164.640823 555.166687,218.502045 564.652710,271.420319 
	C571.381042,308.954132 592.647949,334.954803 628.342651,350.135071 
M216.261536,341.211365 
	C237.763107,354.560394 261.100037,359.764984 286.064728,355.667664 
	C342.280975,346.441223 379.026306,295.065033 370.113892,238.715988 
	C359.977600,174.629150 289.420746,136.071869 230.368927,162.736008 
	C193.534592,179.368088 172.452911,208.394974 169.525833,248.586014 
	C166.671432,287.779297 183.224335,318.607574 216.261536,341.211365 
M1015.017517,164.486450 
	C973.748657,185.140900 950.922852,229.791519 959.331543,273.416443 
	C970.224915,329.932129 1022.392151,365.484833 1078.972290,354.953217 
	C1132.640015,344.963745 1169.659302,289.861237 1158.531738,236.530701 
	C1144.821899,170.824478 1077.188843,136.549423 1015.017517,164.486450 
M1387.699341,223.500153 
	C1387.699341,202.840561 1387.575806,182.179611 1387.800537,161.522461 
	C1387.847046,157.237946 1386.477539,156.259094 1382.431396,156.305161 
	C1369.113892,156.456802 1355.791626,156.121384 1342.471436,156.136124 
	C1298.828247,156.184448 1255.184937,156.302246 1211.541748,156.411057 
	C1210.423584,156.413849 1209.305908,156.621170 1208.135986,156.738297 
	C1208.080933,157.988937 1207.998901,158.982071 1207.998779,159.975220 
	C1207.992676,220.454422 1207.987427,280.933624 1208.019653,341.412811 
	C1208.020630,343.390442 1208.167114,345.430359 1208.660645,347.333618 
	C1210.085938,352.830170 1214.394409,356.152893 1219.822388,356.216766 
	C1228.299561,356.316498 1232.755859,351.338928 1232.758301,341.639404 
	C1232.771606,289.990509 1232.764771,238.341599 1232.764893,186.692703 
	C1232.764893,184.916901 1232.764893,183.141113 1232.764893,181.322922 
	C1276.424194,181.322922 1319.628296,181.322922 1362.993408,181.322922 
	C1362.993408,183.455353 1362.993286,185.274704 1362.993286,187.094070 
	C1362.993286,238.409744 1362.978149,289.725464 1363.037720,341.041046 
	C1363.040771,343.661255 1363.275269,346.422974 1364.120361,348.870728 
	C1365.848022,353.874359 1371.044312,356.828369 1376.395630,356.383423 
	C1381.652466,355.946350 1385.888550,352.532135 1387.079590,347.390900 
	C1387.597900,345.152893 1387.673096,342.774902 1387.675171,340.460236 
	C1387.708984,301.806915 1387.699341,263.153534 1387.699341,223.500153 
M816.565796,350.963226 
	C824.061829,350.977936 831.557800,351.003876 839.053833,351.005310 
	C862.875732,351.009949 886.697693,351.038727 910.519470,350.984680 
	C917.948792,350.967804 923.249390,346.127594 923.585693,339.337219 
	C923.948486,332.012512 918.412720,326.675171 910.085754,326.647095 
	C888.596313,326.574615 867.106384,326.621826 845.616699,326.621307 
	C843.836487,326.621246 842.056274,326.621277 840.022583,326.621277 
	C840.022583,324.211243 840.022583,322.392670 840.022583,320.574127 
	C840.022583,248.608658 840.023193,176.643188 840.021912,104.677719 
	C840.021667,94.070595 835.527039,88.156082 827.607178,88.325417 
	C819.782654,88.492706 815.584595,94.159309 815.584412,104.570717 
	C815.583130,173.704224 815.577148,242.837723 815.589783,311.971222 
	C815.592163,324.796051 815.672302,337.620911 816.565796,350.963226 
M427.413025,356.947266 
	C436.014130,355.442322 439.207184,351.608917 439.209869,342.570923 
	C439.225281,290.594452 439.217377,238.617996 439.217407,186.641541 
	C439.217407,184.866592 439.217438,183.091660 439.217438,181.003647 
	C460.068146,181.003647 480.366089,181.004257 500.664062,181.003357 
	C509.160187,181.002991 517.658386,181.112640 526.151733,180.956863 
	C531.662415,180.855804 535.803223,178.113647 537.702393,172.937363 
	C539.429016,168.231583 538.895447,163.186249 534.748657,160.201340 
	C531.753479,158.045380 527.529297,156.589676 523.839966,156.561661 
	C488.857849,156.295898 453.872864,156.399643 418.888702,156.416718 
	C417.627258,156.417328 416.365936,156.621597 415.072479,156.733734 
	C414.985931,157.758713 414.882080,158.414886 414.881989,159.071075 
	C414.874451,220.709839 414.858093,282.348602 414.896271,343.987366 
	C414.900940,351.525574 418.608826,355.472534 427.413025,356.947266 
M189.365479,430.953796 
	C193.188736,428.068176 194.171524,424.066162 194.158707,419.505920 
	C194.098358,398.028839 194.136658,376.551483 194.118698,355.074249 
	C194.117783,353.980438 193.921616,352.886749 193.817230,351.801910 
	C185.378952,351.801910 177.297379,351.801910 169.001236,351.801910 
	C169.001236,375.222473 168.800034,398.359100 169.094360,421.489441 
	C169.222748,431.578705 179.197433,436.346985 189.365479,430.953796 
M898.436646,181.250183 
	C902.094360,181.221603 905.757751,181.312820 909.408447,181.137817 
	C915.680298,180.837158 920.547791,175.683578 920.704834,169.375198 
	C920.857239,163.254959 915.994507,157.178024 909.919617,157.085831 
	C892.616760,156.823273 875.307312,156.993652 857.776489,156.993652 
	C857.776489,165.111679 857.776489,172.997314 857.776489,181.250137 
	C871.195435,181.250137 884.324890,181.250137 898.436646,181.250183 
z"/>
<path fill="#FCFCFC" opacity="1.000000" stroke="none" 
	d="
M627.972290,350.025696 
	C592.647949,334.954803 571.381042,308.954132 564.652710,271.420319 
	C555.166687,218.502045 593.453064,164.640823 646.552124,156.002258 
	C703.684082,146.707581 754.518372,182.735535 764.663696,239.712006 
	C773.969543,291.973969 736.692932,345.349762 684.294189,355.019379 
	C665.140015,358.554016 646.526978,357.104584 627.972290,350.025696 
M732.214905,221.362778 
	C717.537903,193.228790 687.985168,176.635040 657.250916,180.284256 
	C627.555847,183.810089 605.940308,199.460968 594.671570,227.259979 
	C583.406311,255.050278 587.961060,281.309235 606.931091,304.481537 
	C629.929565,332.574707 672.293030,339.393005 702.523865,321.408661 
	C736.289001,301.321747 750.580933,258.765686 732.214905,221.362778 
z"/>
<path fill="#FCFCFC" opacity="1.000000" stroke="none" 
	d="
M215.945953,341.032867 
	C183.224335,318.607574 166.671432,287.779297 169.525833,248.586014 
	C172.452911,208.394974 193.534592,179.368088 230.368927,162.736008 
	C289.420746,136.071869 359.977600,174.629150 370.113892,238.715988 
	C379.026306,295.065033 342.280975,346.441223 286.064728,355.667664 
	C261.100037,359.764984 237.763107,354.560394 215.945953,341.032867 
M345.907501,250.823029 
	C345.604401,248.344696 345.339417,245.860992 344.992523,243.388809 
	C339.547943,204.588028 300.424683,174.974091 261.662567,180.303360 
	C219.416672,186.111588 191.582809,220.800568 194.928909,263.472595 
	C198.218689,305.426605 240.397736,337.980438 281.817627,330.533356 
	C321.219727,323.449036 346.642609,292.216370 345.907501,250.823029 
z"/>
<path fill="#FDFDFD" opacity="1.000000" stroke="none" 
	d="
M1015.349426,164.311737 
	C1077.188843,136.549423 1144.821899,170.824478 1158.531738,236.530701 
	C1169.659302,289.861237 1132.640015,344.963745 1078.972290,354.953217 
	C1022.392151,365.484833 970.224915,329.932129 959.331543,273.416443 
	C950.922852,229.791519 973.748657,185.140900 1015.349426,164.311737 
M1132.997803,238.668472 
	C1122.368530,197.844894 1084.133545,173.095551 1044.346436,181.284744 
	C1005.523132,189.275558 980.402466,223.812912 983.946838,264.325592 
	C987.134216,300.757629 1019.699524,330.353821 1057.690308,331.345428 
	C1106.321167,332.614746 1144.223389,286.473145 1132.997803,238.668472 
z"/>
<path fill="#FBFBFB" opacity="1.000000" stroke="none" 
	d="
M1387.699341,224.000153 
	C1387.699341,263.153534 1387.708984,301.806915 1387.675171,340.460236 
	C1387.673096,342.774902 1387.597900,345.152893 1387.079590,347.390900 
	C1385.888550,352.532135 1381.652466,355.946350 1376.395630,356.383423 
	C1371.044312,356.828369 1365.848022,353.874359 1364.120361,348.870728 
	C1363.275269,346.422974 1363.040771,343.661255 1363.037720,341.041046 
	C1362.978149,289.725464 1362.993286,238.409744 1362.993286,187.094070 
	C1362.993286,185.274704 1362.993408,183.455353 1362.993408,181.322922 
	C1319.628296,181.322922 1276.424194,181.322922 1232.764893,181.322922 
	C1232.764893,183.141113 1232.764893,184.916901 1232.764893,186.692703 
	C1232.764771,238.341599 1232.771606,289.990509 1232.758301,341.639404 
	C1232.755859,351.338928 1228.299561,356.316498 1219.822388,356.216766 
	C1214.394409,356.152893 1210.085938,352.830170 1208.660645,347.333618 
	C1208.167114,345.430359 1208.020630,343.390442 1208.019653,341.412811 
	C1207.987427,280.933624 1207.992676,220.454422 1207.998779,159.975220 
	C1207.998901,158.982071 1208.080933,157.988937 1208.135986,156.738297 
	C1209.305908,156.621170 1210.423584,156.413849 1211.541748,156.411057 
	C1255.184937,156.302246 1298.828247,156.184448 1342.471436,156.136124 
	C1355.791626,156.121384 1369.113892,156.456802 1382.431396,156.305161 
	C1386.477539,156.259094 1387.847046,157.237946 1387.800537,161.522461 
	C1387.575806,182.179611 1387.699341,202.840561 1387.699341,224.000153 
z"/>
<path fill="#FFFFFF" opacity="1.000000" stroke="none" 
	d="
M816.141235,350.704468 
	C815.672302,337.620911 815.592163,324.796051 815.589783,311.971222 
	C815.577148,242.837723 815.583130,173.704224 815.584412,104.570717 
	C815.584595,94.159309 819.782654,88.492706 827.607178,88.325417 
	C835.527039,88.156082 840.021667,94.070595 840.021912,104.677719 
	C840.023193,176.643188 840.022583,248.608658 840.022583,320.574127 
	C840.022583,322.392670 840.022583,324.211243 840.022583,326.621277 
	C842.056274,326.621277 843.836487,326.621246 845.616699,326.621307 
	C867.106384,326.621826 888.596313,326.574615 910.085754,326.647095 
	C918.412720,326.675171 923.948486,332.012512 923.585693,339.337219 
	C923.249390,346.127594 917.948792,350.967804 910.519470,350.984680 
	C886.697693,351.038727 862.875732,351.009949 839.053833,351.005310 
	C831.557800,351.003876 824.061829,350.977936 816.141235,350.704468 
z"/>
<path fill="#FDFDFD" opacity="1.000000" stroke="none" 
	d="
M427.006317,356.947083 
	C418.608826,355.472534 414.900940,351.525574 414.896271,343.987366 
	C414.858093,282.348602 414.874451,220.709839 414.881989,159.071075 
	C414.882080,158.414886 414.985931,157.758713 415.072479,156.733734 
	C416.365936,156.621597 417.627258,156.417328 418.888702,156.416718 
	C453.872864,156.399643 488.857849,156.295898 523.839966,156.561661 
	C527.529297,156.589676 531.753479,158.045380 534.748657,160.201340 
	C538.895447,163.186249 539.429016,168.231583 537.702393,172.937363 
	C535.803223,178.113647 531.662415,180.855804 526.151733,180.956863 
	C517.658386,181.112640 509.160187,181.002991 500.664062,181.003357 
	C480.366089,181.004257 460.068146,181.003647 439.217438,181.003647 
	C439.217438,183.091660 439.217407,184.866592 439.217407,186.641541 
	C439.217377,238.617996 439.225281,290.594452 439.209869,342.570923 
	C439.207184,351.608917 436.014130,355.442322 427.006317,356.947083 
z"/>
<path fill="#FEFEFE" opacity="1.000000" stroke="none" 
	d="
M189.061188,431.179199 
	C179.197433,436.346985 169.222748,431.578705 169.094360,421.489441 
	C168.800034,398.359100 169.001236,375.222473 169.001236,351.801910 
	C177.297379,351.801910 185.378952,351.801910 193.817230,351.801910 
	C193.921616,352.886749 194.117783,353.980438 194.118698,355.074249 
	C194.136658,376.551483 194.098358,398.028839 194.158707,419.505920 
	C194.171524,424.066162 193.188736,428.068176 189.061188,431.179199 
z"/>
<path fill="#FCFCFC" opacity="1.000000" stroke="none" 
	d="
M897.945496,181.250153 
	C884.324890,181.250137 871.195435,181.250137 857.776489,181.250137 
	C857.776489,172.997314 857.776489,165.111679 857.776489,156.993652 
	C875.307312,156.993652 892.616760,156.823273 909.919617,157.085831 
	C915.994507,157.178024 920.857239,163.254959 920.704834,169.375198 
	C920.547791,175.683578 915.680298,180.837158 909.408447,181.137817 
	C905.757751,181.312820 902.094360,181.221603 897.945496,181.250153 
z"/>
<path fill="#010101" opacity="1.000000" stroke="none" 
	d="
M732.412231,221.681824 
	C750.580933,258.765686 736.289001,301.321747 702.523865,321.408661 
	C672.293030,339.393005 629.929565,332.574707 606.931091,304.481537 
	C587.961060,281.309235 583.406311,255.050278 594.671570,227.259979 
	C605.940308,199.460968 627.555847,183.810089 657.250916,180.284256 
	C687.985168,176.635040 717.537903,193.228790 732.412231,221.681824 
z"/>
<path fill="#010101" opacity="1.000000" stroke="none" 
	d="
M345.925568,251.287949 
	C346.642609,292.216370 321.219727,323.449036 281.817627,330.533356 
	C240.397736,337.980438 198.218689,305.426605 194.928909,263.472595 
	C191.582809,220.800568 219.416672,186.111588 261.662567,180.303360 
	C300.424683,174.974091 339.547943,204.588028 344.992523,243.388809 
	C345.339417,245.860992 345.604401,248.344696 345.925568,251.287949 
z"/>
<path fill="#010101" opacity="1.000000" stroke="none" 
	d="
M1133.063965,239.087387 
	C1144.223389,286.473145 1106.321167,332.614746 1057.690308,331.345428 
	C1019.699524,330.353821 987.134216,300.757629 983.946838,264.325592 
	C980.402466,223.812912 1005.523132,189.275558 1044.346436,181.284744 
	C1084.133545,173.095551 1122.368530,197.844894 1133.063965,239.087387 
z"/>
</svg>